<svg id="Слой_1" data-name="Слой 1" xmlns="http://www.w3.org/2000/svg" viewBox="0 0 181.28 68">
  <defs>
    <style>
      .cls-1, .cls-3 {
        fill: #e3530c;
        stroke: #e3530c;
      }

      .cls-1 {
        stroke-miterlimit: 10;
        stroke-width: 2px;
      }

      .cls-2 {
        fill: #465d50;
        stroke: #465d50;
      }

      .cls-2, .cls-3 {
        stroke-linecap: round;
        stroke-linejoin: round;
      }
    </style>
  </defs>
  <title>logo</title>
  <g>
    <g>
      <path class="cls-1" d="M110.52,27.48a6.93,6.93,0,1,0,1.88,13.6,6.63,6.63,0,0,0,.77-.27,6.93,6.93,0,0,0-2.65-13.33Zm2.35,12.57a5.94,5.94,0,0,1-.77.26,6.12,6.12,0,1,1,.77-.26Z"/>
      <path class="cls-1" d="M118.87,46.2a.41.41,0,0,0-.57.05c-1.2,1.43-2.43,2.77-3.55,3.94l-.57.59c-1.69,1.72-3.08,3-3.64,3.49a83.37,83.37,0,0,1-8.05-8.37l-.52-.64a36.49,36.49,0,0,1-3.76-5.57c-.13-.24-.25-.49-.37-.73a10.92,10.92,0,0,1-1.24-4.56,13.89,13.89,0,0,1,.51-3.75q.11-.39.24-.78a13.89,13.89,0,0,1,1.58-3.19.4.4,0,0,0-.08-.54h0a.41.41,0,0,0-.59.09,14.7,14.7,0,0,0-1.69,3.42c-.09.26-.17.52-.24.78a14.69,14.69,0,0,0-.55,4,11.77,11.77,0,0,0,1.36,5q.17.36.37.73a37.06,37.06,0,0,0,3.91,5.77l.52.64q.53.64,1.11,1.31a84.79,84.79,0,0,0,7.21,7.28l.27.23.27-.23s1.69-1.48,3.87-3.68l.57-.59c.88-.91,1.83-1.93,2.77-3l.92-1.08a.41.41,0,0,0-.05-.57Zm2.66-21.61c-.18-.2-.37-.4-.56-.59a14.76,14.76,0,0,0-5.88-3.62l-.78-.23A14.74,14.74,0,0,0,102,22.38a.4.4,0,0,0-.08.59h0a.41.41,0,0,0,.55.07A13.92,13.92,0,0,1,114,20.93l.78.23a14,14,0,0,1,5.52,3.38q.29.29.56.59a13.88,13.88,0,0,1,3.56,9.29c0,2.29-1.26,5-3,7.67a.41.41,0,0,0,.11.56h0a.41.41,0,0,0,.57-.11c2.1-3.17,3.16-5.89,3.16-8.12A14.69,14.69,0,0,0,121.52,24.59Z"/>
      <path class="cls-1" d="M107.39,40.12l-.84,1-.53.63-3.54,4.17-.54.64-.52-.64.54-.64,3.35-3.95.53-.63.93-1.1Z"/>
      <path class="cls-1" d="M115.23,50.86l-.57.59-.5-.67-1.73-2.33-.49-.66-.13-.18-.49-.66.73-.38.46.62,0,0,.46.62,1.73,2.34Z"/>
      <path class="cls-1" d="M115.17,45.87l-.49.25-.24.12-.3-.76-1.59-4-.15-.38-.15-.38-.15-.38a5.94,5.94,0,0,0,.77-.26l.09.22.21.54.09.23,1.61,4.07Z"/>
      <polygon class="cls-1" points="115.17 45.87 114.69 46.12 114.45 46.25 113.95 46.5 112.54 47.23 111.81 47.61 111.32 46.95 112.05 46.57 113.46 45.84 114.15 45.49 114.19 45.46 114.87 45.11 115.17 45.87"/>
      <path class="cls-1" d="M104.44,32l-.23.78-3.61-1.05-.82-.24-2.68-.78-.79-.23c.07-.26.15-.52.24-.78l.79.23,2.42.71.82.24Z"/>
      <path class="cls-1" d="M105.84,40.69l-5.36-3.31L97.83,39l-.7.44q.17.36.37.73l0,0,.65-.42,2.12-1.35.48.28,4.51,2.69.71.42.53-.63Z"/>
      <polygon class="cls-1" points="118.73 27 118.09 27.55 117.38 27.09 113.66 24.68 112.95 24.23 113.21 23.43 113.92 23.89 118.02 26.54 118.73 27"/>
      <path class="cls-1" d="M121.52,24.59l-.62.53L118.73,27l-.64.55-.71-.46.64-.55,2.32-2L121,24C121.15,24.19,121.34,24.38,121.52,24.59Z"/>
      <path class="cls-1" d="M115.08,20.38l-.26.78-.9,2.73-.26.8-1.19,3.59L111.7,28l1.25-3.8.26-.8.83-2.5.26-.78Z"/>
    </g>
    <path class="cls-2" d="M12.33,38.39a6.44,6.44,0,0,1-1.64,4.76,5.72,5.72,0,0,1-4.22,1.76,5.74,5.74,0,0,1-4.22-1.75A5.36,5.36,0,0,1,.5,39.31l1.21-.47a5.42,5.42,0,0,0,1.74,3.32,3.76,3.76,0,0,0,2.5.94,3.37,3.37,0,0,0,.51,0A4,4,0,0,0,9.4,41.86a5.08,5.08,0,0,0,1.09-3.67V11.81h1.85Z"/>
    <path class="cls-2" d="M26.89,44.91a8.12,8.12,0,0,1-6-2.24A7.86,7.86,0,0,1,18.59,37V24.49h1.85V36.87a5.85,5.85,0,0,0,1.87,4.37,6.25,6.25,0,0,0,4.57,1.83,6.08,6.08,0,0,0,4.4-1.81,5.9,5.9,0,0,0,1.86-4.38V24.49H35V37a7.75,7.75,0,0,1-8.08,7.88Z"/>
    <path class="cls-2" d="M46.66,34.27a14.91,14.91,0,0,1-3.26-2.17A4.64,4.64,0,0,1,42,28.69a4.7,4.7,0,0,1,1.42-3.44,4.62,4.62,0,0,1,3.4-1.43,4.5,4.5,0,0,1,3.32,1.31,4.07,4.07,0,0,1,1.27,2.93v.1l-1.6.64a4,4,0,0,0-1-2.34,2.71,2.71,0,0,0-2-.78,3,3,0,0,0-2.11,5.11,14.37,14.37,0,0,0,2.17,1.56A17.12,17.12,0,0,1,50.6,34.9a6,6,0,1,1-8.45,8.46,5.36,5.36,0,0,1-1.74-3.85L42.23,39a4.07,4.07,0,0,0,1.22,3,4.14,4.14,0,0,0,5.85-5.87A17.78,17.78,0,0,0,46.66,34.27Z"/>
    <path class="cls-2" d="M60.75,24.49V15.91H62.6v8.57h4.1v1.85H62.6V44.62H60.75V26.33h-4.1V24.49Z"/>
    <path class="cls-3" d="M80.6,33.22l-.55,0H74.47V44.62H72.62V11.81h8.61a10.85,10.85,0,0,1,6.38,3.14,10.31,10.31,0,0,1,3.14,7.57A10.8,10.8,0,0,1,82.63,33L90.2,44.62H87.92ZM74.47,13.68v17.7H80a8.86,8.86,0,0,0,8.84-8.86A8.84,8.84,0,0,0,80,13.68Z"/>
    <path class="cls-3" d="M152.59,44.62h-1.85v-4.1a13.87,13.87,0,0,1-1.17,1.37,11.27,11.27,0,0,1-19.24-8,11.27,11.27,0,0,1,19.24-8,13.87,13.87,0,0,1,1.17,1.37V24.49h1.85Zm-1.85-8.86V32.11A9.32,9.32,0,1,0,135,40.51a9.34,9.34,0,0,0,15.73-4.75Z"/>
    <path class="cls-3" d="M158.74,24.49h1.85V25a6,6,0,0,1,8.35.08,5.88,5.88,0,0,1,.82,1,6.43,6.43,0,0,1,.84-1A6,6,0,0,1,179,25a5.85,5.85,0,0,1,1.74,4V44.62h-1.85V29.08h0a4.14,4.14,0,0,0-7.06-2.73,4.07,4.07,0,0,0-1.22,3V44.62h-1.85V29.08h0a4.14,4.14,0,0,0-4.14-3.94,4.16,4.16,0,0,0-4.12,3.77V44.62h-1.85Z"/>
  </g>
</svg>
