<svg id="Слой_1" data-name="Слой 1" xmlns="http://www.w3.org/2000/svg" viewBox="0 0 71 71">
  <defs>
    <style>
      .cls-1 {
        fill: none;
        stroke: #e44125;
        stroke-linecap: round;
        stroke-linejoin: round;
        stroke-width: 3px;
      }
    </style>
  </defs>
  <title>bag</title>
  <path class="cls-1" d="M45.85,16.28V11.85a10.35,10.35,0,1,0-20.7,0v4.43"/>
  <path class="cls-1" d="M11.85,69.5V37.72a23.65,23.65,0,0,1,47.3,0V69.5"/>
  <path class="cls-1" d="M59.15,44.37A10.35,10.35,0,0,1,69.5,54.72V65.8h0a3.7,3.7,0,0,1-3.7,3.7H5.2a3.7,3.7,0,0,1-3.7-3.7h0V54.72A10.35,10.35,0,0,1,11.85,44.37"/>
  <rect class="cls-1" x="22.93" y="37.72" width="25.13" height="19.96" rx="2.96" ry="2.96"/>
  <line class="cls-1" x1="22.93" y1="44.37" x2="48.07" y2="44.37"/>
  <path class="cls-1" d="M17,37.72a18.48,18.48,0,0,1,37,0"/>
  <circle class="cls-1" cx="35.5" cy="26.63" r="2.96"/>
</svg>
