<svg id="Слой_1" data-name="Слой 1" xmlns="http://www.w3.org/2000/svg" viewBox="0 0 71 71">
  <defs>
    <style>
      .cls-1 {
        fill: none;
        stroke: #e3530c;
        stroke-linecap: round;
        stroke-linejoin: round;
        stroke-width: 3px;
      }
    </style>
  </defs>
  <title>instagram</title>
  <g>
    <path class="cls-1" d="M48.53,69.5H22.47c-11.56,0-21-9.86-21-22V23.47c0-12.12,9.41-22,21-22H48.53c11.56,0,21,9.86,21,22V47.53C69.5,59.64,60.09,69.5,48.53,69.5ZM22.47,6.38c-9,0-16.31,7.67-16.31,17.09V47.53c0,9.42,7.32,17.09,16.31,17.09H48.53c9,0,16.31-7.67,16.31-17.09V23.47c0-9.42-7.32-17.09-16.31-17.09Z"/>
    <path class="cls-1" d="M35.5,55.06c-10.29,0-18.67-8.77-18.67-19.56S25.21,15.94,35.5,15.94,54.17,24.71,54.17,35.5,45.79,55.06,35.5,55.06Zm0-34.23c-7.72,0-14,6.58-14,14.68s6.28,14.68,14,14.68,14-6.58,14-14.68S43.22,20.82,35.5,20.82Z"/>
    <ellipse class="cls-1" cx="53.88" cy="16.54" rx="3.87" ry="4.06"/>
  </g>
</svg>
