<svg id="Слой_1" data-name="Слой 1" xmlns="http://www.w3.org/2000/svg" viewBox="0 0 71 71">
  <defs>
    <style>
      .cls-1 {
        fill: none;
        stroke: #e3530c;
        stroke-linecap: round;
        stroke-linejoin: round;
        stroke-width: 3px;
      }
    </style>
  </defs>
  <title>intro</title>
  <g>
    <path class="cls-1" d="M27.88,11.85H35.5V69.49H3A1.48,1.48,0,0,1,1.5,68V13.33A1.48,1.48,0,0,1,3,11.85H9.12"/>
    <path class="cls-1" d="M69.5,68c0,1.69-.16,1.94-2.22.74L51.76,59.15,35.5,69.49V11.85L51.76,1.5,68,11.85c1.48,1,1.48,1.4,1.48,2.22Z"/>
    <line class="cls-1" x1="51.76" y1="1.5" x2="51.76" y2="59.15"/>
    <g>
      <circle class="cls-1" cx="17.5" cy="43.71" r="2.96" transform="translate(-20.03 15.29) rotate(-31.04)"/>
      <line class="cls-1" x1="18.22" y1="40.84" x2="18.93" y2="37.97"/>
      <line class="cls-1" x1="14.82" y1="45.32" x2="7.67" y2="61.82"/>
      <line class="cls-1" x1="19.12" y1="46.39" x2="17.71" y2="64.32"/>
      <line class="cls-1" x1="11.5" y1="52.99" x2="18.47" y2="54.62"/>
    </g>
    <g>
      <circle class="cls-1" cx="18.5" cy="17.76" r="2.96" transform="translate(-7.14 18.28) rotate(-44.99)"/>
      <circle class="cls-1" cx="18.5" cy="17.76" r="11.09"/>
      <path class="cls-1" d="M29.59,21.45a11.09,11.09,0,0,1-22.17,0"/>
      <line class="cls-1" x1="16.41" y1="19.85" x2="13.6" y2="22.66"/>
      <line class="cls-1" x1="20.59" y1="15.67" x2="23.74" y2="12.52"/>
      <line class="cls-1" x1="7.41" y1="21.45" x2="7.41" y2="17.02"/>
      <line class="cls-1" x1="29.59" y1="21.45" x2="29.59" y2="17.76"/>
    </g>
  </g>
</svg>
